<svg width="22" height="26" fill="none" xmlns="http://www.w3.org/2000/svg"><path d="M17.897 13.346c.025-1.933 1.079-3.763 2.75-4.775-1.055-1.484-2.82-2.425-4.657-2.481-1.959-.203-3.858 1.155-4.857 1.155-1.017 0-2.554-1.135-4.21-1.102-2.157.069-4.168 1.278-5.218 3.137-2.256 3.851-.573 9.51 1.588 12.623 1.082 1.524 2.345 3.226 3.999 3.166 1.618-.066 2.223-1.017 4.176-1.017 1.935 0 2.502 1.017 4.19.979 1.736-.028 2.83-1.531 3.874-3.07a12.535 12.535 0 0 0 1.77-3.556c-2.04-.851-3.402-2.875-3.405-5.06zM14.71 4.043a5.55 5.55 0 0 0 1.3-4.015 5.812 5.812 0 0 0-3.742 1.909 5.332 5.332 0 0 0-1.334 3.865 4.866 4.866 0 0 0 3.776-1.76z" fill="#F8F8F8"/></svg>