<svg width="654" height="709" fill="none" xmlns="http://www.w3.org/2000/svg"><path d="M443.166 539.285c27.545-33.382 44.527-63.068 34.763-105.232-10.288-44.422-61.926-41.038-84.337-80.748-36.764-65.144 51.456-141.032-3.751-191.505-31.825-29.096-62.108-35.954-105.168-33.647-61.349 3.287-97.619 35.338-131.227 86.767-51.941 79.482-36.127 165.489 19.639 242.336 64.741 89.215 199.924 167.051 270.081 82.029z" fill="#EFEEE8"/><path d="M492.842 579.846c34.424-41.718 55.647-78.817 43.444-131.51-12.857-55.516-77.39-51.286-105.398-100.913-45.944-81.411 64.306-176.251-4.687-239.327-39.773-36.363-77.618-44.933-131.431-42.05-76.669 4.108-121.996 44.163-163.997 108.435-64.911 99.33-45.148 206.815 24.543 302.851C236.225 588.826 405.165 686.1 492.842 579.846z" stroke="#E5E4DE"/></svg>