<svg width="350" height="451" fill="none" xmlns="http://www.w3.org/2000/svg"><path d="M301.69 400.474c-52.166-6.209-91.96-18.029-118.738-63.226-28.212-47.618 19.953-87.94 6.332-141.585C166.94 107.659 25.88 115.007 32.024 24.419 35.568-27.803 56.4-59.21 96.132-93.285c56.606-48.548 115.314-50.822 187.931-33.855C396.29-100.918 454.515-12.165 469.991 102.042c17.966 132.589-35.438 314.245-168.301 298.432z" stroke="#E1DFD6"/><path d="M308 318.095c-36.826-4.383-64.919-12.727-83.823-44.634-19.916-33.616 14.086-62.081 4.47-99.952-15.773-62.126-115.355-56.939-111.017-120.89 2.501-36.865 17.208-59.038 45.256-83.093 39.961-34.272 81.406-35.878 132.67-23.9 79.227 18.512 120.331 81.167 131.256 161.791C439.496 201.018 401.795 329.259 308 318.095z" fill="#E9E7E0"/></svg>